<?xml version="1.0" encoding="UTF-8" standalone="no"?>
<!-- Created with Inkscape (http://www.inkscape.org/) -->

<svg
   xmlns:dc="http://purl.org/dc/elements/1.1/"
   xmlns:cc="http://creativecommons.org/ns#"
   xmlns:rdf="http://www.w3.org/1999/02/22-rdf-syntax-ns#"
   xmlns:svg="http://www.w3.org/2000/svg"
   xmlns="http://www.w3.org/2000/svg"
   xmlns:xlink="http://www.w3.org/1999/xlink"
   xmlns:sodipodi="http://sodipodi.sourceforge.net/DTD/sodipodi-0.dtd"
   xmlns:inkscape="http://www.inkscape.org/namespaces/inkscape"
   id="svg3664"
   sodipodi:docname="logo.svg"
   viewBox="0 0 128 128"
   version="1.1"
   inkscape:version="0.48.4 r9939"
   width="100%"
   height="100%">
  <defs
     id="defs3666">
    <linearGradient
       id="linearGradient4342"
       y2="814.67"
       xlink:href="#linearGradient6122-7"
       gradientUnits="userSpaceOnUse"
       x2="593.26"
       y1="814.67"
       x1="492.68"
       inkscape:collect="always" />
    <linearGradient
       id="linearGradient6122-7">
      <stop
         id="stop6124-1"
         style="stop-color:#e4e4cd"
         offset="0" />
      <stop
         id="stop6126-6"
         style="stop-color:#858585"
         offset="1" />
    </linearGradient>
    <linearGradient
       id="linearGradient4487"
       y2="814.71"
       xlink:href="#linearGradient6122-7"
       gradientUnits="userSpaceOnUse"
       x2="543.91"
       y1="814.71"
       x1="525.71"
       inkscape:collect="always" />
    <linearGradient
       id="linearGradient4501"
       y2="814.01"
       xlink:href="#linearGradient4418"
       gradientUnits="userSpaceOnUse"
       x2="539.37"
       y1="814.01"
       x1="529.99"
       inkscape:collect="always" />
    <linearGradient
       id="linearGradient4418"
       inkscape:collect="always">
      <stop
         id="stop4420"
         style="stop-color:#000000"
         offset="0" />
      <stop
         id="stop4422"
         style="stop-color:#000000;stop-opacity:0"
         offset="1" />
    </linearGradient>
    <linearGradient
       id="linearGradient4360"
       y2="956"
       xlink:href="#linearGradient6122-7"
       gradientUnits="userSpaceOnUse"
       x2="792.08"
       gradientTransform="matrix(2.3068,0.36536,-0.36536,2.3068,-624.22,-1520.9)"
       y1="956"
       x1="695.92"
       inkscape:collect="always" />
    <linearGradient
       id="linearGradient4378"
       y2="956"
       xlink:href="#linearGradient3793"
       gradientUnits="userSpaceOnUse"
       x2="792.08"
       gradientTransform="matrix(2.3068,0.36536,-0.36536,2.3068,-624.22,-1520.9)"
       y1="956"
       x1="695.92"
       inkscape:collect="always" />
    <linearGradient
       id="linearGradient3793">
      <stop
         id="stop3795"
         style="stop-color:#252525"
         offset="0" />
      <stop
         id="stop3797"
         style="stop-color:#232323"
         offset="1" />
    </linearGradient>
    <radialGradient
       id="radialGradient4342"
       xlink:href="#linearGradient3793"
       gradientUnits="userSpaceOnUse"
       cy="536"
       cx="328"
       r="80"
       inkscape:collect="always" />
    <linearGradient
       inkscape:collect="always"
       xlink:href="#linearGradient6122-7"
       id="linearGradient3015"
       gradientUnits="userSpaceOnUse"
       x1="525.71"
       y1="814.71"
       x2="543.91"
       y2="814.71" />
    <linearGradient
       inkscape:collect="always"
       xlink:href="#linearGradient4418"
       id="linearGradient3017"
       gradientUnits="userSpaceOnUse"
       x1="529.99"
       y1="814.01"
       x2="539.37"
       y2="814.01" />
    <linearGradient
       inkscape:collect="always"
       xlink:href="#linearGradient4418"
       id="linearGradient3019"
       gradientUnits="userSpaceOnUse"
       x1="529.99"
       y1="814.01"
       x2="539.37"
       y2="814.01" />
    <linearGradient
       inkscape:collect="always"
       xlink:href="#linearGradient4418"
       id="linearGradient3021"
       gradientUnits="userSpaceOnUse"
       x1="529.99"
       y1="814.01"
       x2="539.37"
       y2="814.01" />
    <linearGradient
       inkscape:collect="always"
       xlink:href="#linearGradient4418"
       id="linearGradient3023"
       gradientUnits="userSpaceOnUse"
       x1="529.99"
       y1="814.01"
       x2="539.37"
       y2="814.01" />
    <linearGradient
       inkscape:collect="always"
       xlink:href="#linearGradient4418"
       id="linearGradient3025"
       gradientUnits="userSpaceOnUse"
       x1="529.99"
       y1="814.01"
       x2="539.37"
       y2="814.01" />
  </defs>
  <sodipodi:namedview
     id="base"
     bordercolor="#666666"
     inkscape:pageshadow="2"
     inkscape:window-y="24"
     fit-margin-left="0"
     pagecolor="#ffffff"
     fit-margin-top="0"
     inkscape:window-maximized="1"
     inkscape:zoom="4"
     inkscape:window-x="0"
     inkscape:window-height="1056"
     showgrid="false"
     borderopacity="1.0"
     inkscape:current-layer="layer1"
     inkscape:cx="96.000751"
     inkscape:cy="74.28626"
     fit-margin-right="0"
     fit-margin-bottom="0"
     inkscape:window-width="1920"
     inkscape:pageopacity="0.0"
     inkscape:document-units="px" />
  <g
     id="layer1"
     inkscape:label="Layer 1"
     inkscape:groupmode="layer"
     transform="translate(-310.7 -469.31)">
    <path
       id="path3515"
       sodipodi:rx="48.4375"
       sodipodi:ry="48.632812"
       style="fill:#1a1a1a"
       sodipodi:cy="814.66687"
       sodipodi:type="arc"
       d="m 591.40625,814.66687 a 48.4375,48.632812 0 1 1 -96.875,0 48.4375,48.632812 0 1 1 96.875,0 z"
       inkscape:export-ydpi="132.03"
       inkscape:export-filename="/home/farrer/trigger/focus_complete.png"
       transform="matrix(0.83613952,0,0,0.83278562,-77.667981,-144.74616)"
       inkscape:export-xdpi="132.03"
       sodipodi:cx="542.96875" />
    <path
       id="path3517"
       sodipodi:rx="80"
       sodipodi:ry="80"
       style="fill:url(#radialGradient4342)"
       sodipodi:type="arc"
       d="m 408,536 a 80,80 0 1 1 -160,0 80,80 0 1 1 160,0 z"
       transform="matrix(0.49300781,0,0,0.49300781,214.61698,269.43179)"
       sodipodi:cy="536"
       sodipodi:cx="328" />
    <path
       id="path3519"
       sodipodi:rx="48.4375"
       sodipodi:ry="48.632812"
       style="opacity:0.07999998;fill:url(#sand_bitmap)"
       sodipodi:type="arc"
       d="m 591.40625,814.66687 a 48.4375,48.632812 0 1 1 -96.875,0 48.4375,48.632812 0 1 1 96.875,0 z"
       inkscape:export-ydpi="132.03"
       inkscape:export-filename="/home/farrer/trigger/focus_complete.png"
       transform="matrix(0.79703151,0,0,0.81139643,-56.22818,-127.91325)"
       sodipodi:cy="814.66687"
       sodipodi:cx="542.96875"
       inkscape:export-xdpi="132.03" />
    <path
       id="path3521"
       sodipodi:rx="48.4375"
       sodipodi:ry="49.709736"
       style="fill:#333333"
       sodipodi:type="arc"
       d="m 591.40625,814.66687 a 48.4375,49.709736 0 1 1 -96.875,0 48.4375,49.709736 0 1 1 96.875,0 z"
       inkscape:export-ydpi="132.03"
       inkscape:export-filename="/home/farrer/trigger/focus_complete.png"
       sodipodi:cy="814.66687"
       transform="matrix(0.6531292,0,0,0.63113251,21.892929,19.146809)"
       inkscape:export-xdpi="132.03"
       sodipodi:cx="542.96875" />
    <g
       id="g4381"
       transform="matrix(0.47806703,0,0,0.47806703,377.88979,453.58752)">
      <path
         id="path4344"
         style="fill:url(#linearGradient4360)"
         transform="matrix(1.3237,0,0,1.3237,-986.05,-1099.2)"
         inkscape:connector-curvature="0"
         d="m 719.38,912.53 c -4.0417,2.1261 -7.7748,4.776 -11.062,7.875 8.1121,9.9582 13.65,19.744 10.906,28.188 -2.7623,8.5014 -13.125,13.208 -25.656,16.5 0.81813,4.5587 2.2361,8.9012 4.2188,12.938 12.073,-4.7028 23.206,-7.0042 30.438,-1.75 7.1807,5.2171 8.4584,16.367 7.75,29.188 2.2146,0.2974 4.4844,0.4687 6.7812,0.4687 2.2968,0 4.5667,-0.1713 6.7812,-0.4687 -0.70839,-12.82 0.60059,-23.97 7.7812,-29.188 7.2318,-5.2542 18.333,-2.9528 30.406,1.75 1.9826,-4.0364 3.4006,-8.3788 4.2188,-12.938 -12.531,-3.2917 -22.894,-7.9986 -25.656,-16.5 -2.7435,-8.4435 2.7941,-18.229 10.906,-28.188 -3.2864,-3.0977 -6.9915,-5.7493 -11.031,-7.875 -6.95,10.75 -14.56,18.97 -23.41,18.97 -8.853,0 -16.427,-8.2211 -23.375,-18.969 z" />
      <path
         id="path4362"
         d="m 715.97,914.5 c -1.622,1.0236 -3.1998,2.1469 -4.6875,3.3438 12.975,16.465 24.263,31.448 22.906,35.625 -1.3649,4.2007 -19.496,9.7083 -39.812,15.438 0.49746,1.8919 1.1025,3.7344 1.8125,5.5312 19.796,-7.3036 37.709,-13.502 41.281,-10.906 3.5547,2.5826 3.2262,21.353 2.4062,42.313 0.95463,0.054 1.9068,0.094 2.875,0.094 0.96823,0 1.9204,-0.04 2.875,-0.094 -0.81995,-20.96 -1.1484,-39.73 2.4062,-42.313 3.5721,-2.5953 21.485,3.6027 41.281,10.906 0.71001,-1.7968 1.315,-3.6394 1.8125,-5.5312 -20.317,-5.7292 -38.448,-11.237 -39.812,-15.438 -1.357,-4.1766 9.9317,-19.16 22.906,-35.625 -1.4916,-1.2 -3.061,-2.3179 -4.6875,-3.3438 -11.64,17.412 -22.393,32.75 -26.781,32.75 -4.3892,0 -15.139,-15.334 -26.781,-32.75 z"
         style="fill:url(#linearGradient4378)"
         inkscape:connector-curvature="0"
         transform="matrix(1.3237,0,0,1.3237,-986.05,-1099.2)" />
    </g>
    <g
       id="g4477"
       transform="matrix(0.63281581,0,0,0.63281581,315.80423,-248.37607)">
      <path
         id="path4387"
         sodipodi:rx="8.5997372"
         sodipodi:ry="8.9483757"
         style="fill:url(#linearGradient3015)"
         sodipodi:type="arc"
         d="m 543.41047,814.70728 c 0,4.94205 -3.85024,8.94837 -8.59974,8.94837 -4.7495,0 -8.59974,-4.00632 -8.59974,-8.94837 0,-4.94206 3.85024,-8.94838 8.59974,-8.94838 4.7495,0 8.59974,4.00632 8.59974,8.94838 z"
         transform="matrix(2.099,0,0,2.1276,-1026.6,-498.1)"
         sodipodi:cy="814.70728"
         sodipodi:cx="534.81073" />
      <path
         id="path3531"
         sodipodi:rx="8.5997372"
         sodipodi:ry="8.9483757"
         style="fill:url(#linearGradient4487);stroke:#000000"
         sodipodi:type="arc"
         d="m 543.41047,814.70728 c 0,4.94205 -3.85024,8.94837 -8.59974,8.94837 -4.7495,0 -8.59974,-4.00632 -8.59974,-8.94837 0,-4.94206 3.85024,-8.94838 8.59974,-8.94838 4.7495,0 8.59974,4.00632 8.59974,8.94838 z"
         transform="matrix(1.2895,0,0,1.307,-593.68,170.4)"
         sodipodi:cy="814.70728"
         sodipodi:cx="534.81073" />
      <g
         id="g3533"
         style="fill:url(#linearGradient4501)"
         transform="matrix(1.2895,0,0,1.307,-593.46,171.46)">
        <path
           id="path3537"
           sodipodi:rx="1.568871"
           sodipodi:ry="1.568871"
           style="fill:url(#linearGradient3017)"
           sodipodi:type="arc"
           d="m 533.76479,811.51141 c 0,0.86647 -0.7024,1.56887 -1.56887,1.56887 -0.86646,0 -1.56887,-0.7024 -1.56887,-1.56887 0,-0.86646 0.70241,-1.56887 1.56887,-1.56887 0.86647,0 1.56887,0.70241 1.56887,1.56887 z"
           transform="matrix(0.90202,0,0,0.88506,51.32,91.27)"
           sodipodi:cy="811.51141"
           sodipodi:cx="532.19592" />
        <path
           id="path3539"
           sodipodi:rx="1.568871"
           sodipodi:ry="1.568871"
           style="fill:url(#linearGradient3019)"
           sodipodi:type="arc"
           d="m 533.76479,811.51141 c 0,0.86647 -0.7024,1.56887 -1.56887,1.56887 -0.86646,0 -1.56887,-0.7024 -1.56887,-1.56887 0,-0.86646 0.70241,-1.56887 1.56887,-1.56887 0.86647,0 1.56887,0.70241 1.56887,1.56887 z"
           transform="matrix(0.90202,0,0,0.88506,57.979,91.086)"
           sodipodi:cy="811.51141"
           sodipodi:cx="532.19592" />
        <path
           id="path3541"
           sodipodi:rx="1.568871"
           sodipodi:ry="1.568871"
           style="fill:url(#linearGradient3021)"
           sodipodi:type="arc"
           d="m 533.76479,811.51141 c 0,0.86647 -0.7024,1.56887 -1.56887,1.56887 -0.86646,0 -1.56887,-0.7024 -1.56887,-1.56887 0,-0.86646 0.70241,-1.56887 1.56887,-1.56887 0.86647,0 1.56887,0.70241 1.56887,1.56887 z"
           transform="matrix(0.90202,0,0,0.88506,59.777,97.595)"
           sodipodi:cy="811.51141"
           sodipodi:cx="532.19592" />
        <path
           id="path3543"
           sodipodi:rx="1.568871"
           sodipodi:ry="1.568871"
           style="fill:url(#linearGradient3023)"
           sodipodi:type="arc"
           d="m 533.76479,811.51141 c 0,0.86647 -0.7024,1.56887 -1.56887,1.56887 -0.86646,0 -1.56887,-0.7024 -1.56887,-1.56887 0,-0.86646 0.70241,-1.56887 1.56887,-1.56887 0.86647,0 1.56887,0.70241 1.56887,1.56887 z"
           transform="matrix(0.90202,0,0,0.88506,49.473,97.93)"
           sodipodi:cy="811.51141"
           sodipodi:cx="532.19592" />
        <path
           id="path4434"
           sodipodi:rx="1.568871"
           sodipodi:ry="1.568871"
           style="fill:url(#linearGradient3025)"
           sodipodi:type="arc"
           d="m 533.76479,811.51141 c 0,0.86647 -0.7024,1.56887 -1.56887,1.56887 -0.86646,0 -1.56887,-0.7024 -1.56887,-1.56887 0,-0.86646 0.70241,-1.56887 1.56887,-1.56887 0.86647,0 1.56887,0.70241 1.56887,1.56887 z"
           transform="matrix(0.90202,0,0,0.88506,54.66,101.61)"
           sodipodi:cy="811.51141"
           sodipodi:cx="532.19592" />
      </g>
    </g>
    <path
       id="path3906"
       sodipodi:rx="48.4375"
       sodipodi:ry="49.709736"
       style="fill:none;stroke:url(#linearGradient4342);stroke-width:3.71079993"
       sodipodi:type="arc"
       d="m 591.40625,814.66687 a 48.4375,49.709736 0 1 1 -96.875,0 48.4375,49.709736 0 1 1 96.875,0 z"
       inkscape:export-ydpi="132.03"
       inkscape:export-filename="/home/farrer/trigger/focus_complete.png"
       transform="matrix(0.6531292,0,0,0.63113251,21.892929,19.146809)"
       sodipodi:cy="814.66687"
       sodipodi:cx="542.96875"
       inkscape:export-xdpi="132.03" />
    <text
       xml:space="preserve"
       style="font-size:164px;font-style:normal;font-variant:normal;font-weight:normal;font-stretch:normal;line-height:125%;letter-spacing:0px;word-spacing:0px;fill:#003380;fill-opacity:1;stroke:none;font-family:Comfortaa;-inkscape-font-specification:Comfortaa"
       x="306.2215"
       y="597.3725"
       id="text3027"
       sodipodi:linespacing="125%"><tspan
         sodipodi:role="line"
         id="tspan3029"
         x="306.2215"
         y="597.3725"
         style="font-size:164px;font-weight:bold;-inkscape-font-specification:Comfortaa Bold;fill:#003380">C</tspan></text>
    <text
       xml:space="preserve"
       style="font-size:100px;font-style:normal;font-variant:normal;font-weight:normal;font-stretch:normal;line-height:125%;letter-spacing:0px;word-spacing:0px;fill:#00aa44;fill-opacity:1;stroke:none;font-family:Comfortaa;-inkscape-font-specification:Comfortaa"
       x="327.0965"
       y="578.2475"
       id="text3035"
       sodipodi:linespacing="125%"><tspan
         sodipodi:role="line"
         id="tspan3037"
         x="327.0965"
         y="578.2475"
         style="font-size:115px;font-weight:bold;-inkscape-font-specification:Comfortaa Bold;fill:#00aa44">O</tspan></text>
  </g>
  <metadata
     id="metadata38">
    <rdf:RDF>
      <cc:Work>
        <dc:format>image/svg+xml</dc:format>
        <dc:type
           rdf:resource="http://purl.org/dc/dcmitype/StillImage" />
        <cc:license
           rdf:resource="http://creativecommons.org/licenses/publicdomain/" />
        <dc:publisher>
          <cc:Agent
             rdf:about="http://openclipart.org/">
            <dc:title>Openclipart</dc:title>
          </cc:Agent>
        </dc:publisher>
        <dc:title></dc:title>
        <dc:date>2012-08-02T12:14:56</dc:date>
        <dc:description>Just a wheel side view made for Trigger Rally. I quite like it, hope you do too!</dc:description>
        <dc:source>https://openclipart.org/detail/171410/simple-car-wheel-tire-rims-side-view-by-qubodup-171410</dc:source>
        <dc:creator>
          <cc:Agent>
            <dc:title>qubodup</dc:title>
          </cc:Agent>
        </dc:creator>
        <dc:subject>
          <rdf:Bag>
            <rdf:li>car</rdf:li>
            <rdf:li>cars</rdf:li>
            <rdf:li>rim</rdf:li>
            <rdf:li>rims</rdf:li>
            <rdf:li>tire</rdf:li>
            <rdf:li>tires</rdf:li>
            <rdf:li>transport</rdf:li>
            <rdf:li>travel</rdf:li>
            <rdf:li>vehicle</rdf:li>
            <rdf:li>vehicles</rdf:li>
            <rdf:li>wheel</rdf:li>
            <rdf:li>wheels</rdf:li>
          </rdf:Bag>
        </dc:subject>
      </cc:Work>
      <cc:License
         rdf:about="http://creativecommons.org/licenses/publicdomain/">
        <cc:permits
           rdf:resource="http://creativecommons.org/ns#Reproduction" />
        <cc:permits
           rdf:resource="http://creativecommons.org/ns#Distribution" />
        <cc:permits
           rdf:resource="http://creativecommons.org/ns#DerivativeWorks" />
      </cc:License>
    </rdf:RDF>
  </metadata>
</svg>
